<svg viewBox="0 0 243 43" xmlns="http://www.w3.org/2000/svg" data-logo="logo">
        <g transform="translate(0, 1) rotate(0)" id="logogram"><path fill="#F97306" d="M12.5391 38.5341L8.49231 31.5247L14.4313 21.2664L18.2052 27.8036L40.4836 27.7916L34.162 38.6309L12.5391 38.5341Z"></path><path fill="#FFFFFF" d="M44.4617 20.8316L40.4149 27.8408L28.5615 27.8268L32.3358 21.2898L21.1863 2.00211L33.7341 2.05716L44.4617 20.8316Z"></path><path fill="#EF4F0B" d="M13.1627 1.96472H21.2564L27.1709 12.2373L19.6225 12.2369L8.49375 31.5366L2.26746 20.6424L13.1627 1.96472Z"></path><path fill="#000000" d="M22.2432 0.341857L22.2191 0.299988H12.2067L0.345215 20.634L8.48747 34.8806L8.49746 34.8633L11.5756 40.1947L35.1159 40.3L43.3828 26.1252H43.3278L46.3817 20.8358L34.7027 0.396516L22.2432 0.341857ZM29.9884 13.9021H30.0509L24.1652 3.68005L32.7655 3.71776L42.5418 20.8272L39.4818 26.1274L31.4627 26.1317L34.2586 21.2892L29.9884 13.9021ZM20.2043 3.62966L24.2175 10.5723L18.6609 10.5721L9.148 27.0694L8.4991 28.1904L4.19013 20.6509L14.1192 3.62966H20.2043ZM16.3458 21.2526L20.5844 13.9019L26.1424 13.9021L30.4132 21.2902L27.6166 26.1338L19.1663 26.1384L16.3458 21.2526ZM10.4187 31.5314L12.0312 28.735L14.4292 24.5928L17.2443 29.4691L25.6934 29.4645L25.6797 29.4881L37.5587 29.5022L33.2082 36.9618L13.5029 36.8736L10.4187 31.5314Z" clip-rule="evenodd" fill-rule="evenodd"></path></g>
        <g transform="translate(53, 8)" id="logotype"><path d="M19.06 27L8.31 27L8.31 1.54L18.41 1.54Q21.21 1.54 23.08 2.38Q24.95 3.23 25.88 4.70Q26.82 6.17 26.82 8.08L26.82 8.08Q26.82 9.59 26.22 10.70Q25.62 11.82 24.59 12.53Q23.55 13.24 22.24 13.55L22.24 13.55L22.24 13.81Q23.67 13.86 24.94 14.62Q26.22 15.38 27.01 16.74Q27.81 18.10 27.81 19.99L27.81 19.99Q27.81 21.99 26.82 23.58Q25.82 25.17 23.88 26.09Q21.94 27 19.06 27L19.06 27ZM13.52 15.81L13.52 22.71L18.03 22.71Q20.32 22.71 21.38 21.82Q22.44 20.93 22.44 19.50L22.44 19.50Q22.44 18.40 21.92 17.57Q21.40 16.75 20.44 16.28Q19.48 15.81 18.17 15.81L18.17 15.81L13.52 15.81ZM13.52 5.79L13.52 12.23L17.64 12.23Q18.75 12.23 19.64 11.83Q20.53 11.43 21.03 10.69Q21.53 9.94 21.53 8.92L21.53 8.92Q21.53 7.53 20.55 6.66Q19.57 5.79 17.74 5.79L17.74 5.79L13.52 5.79ZM34.20 27L29.07 27L29.07 7.89L34.03 7.89L34.03 11.23L34.23 11.23Q34.76 9.45 36.00 8.54Q37.24 7.64 38.84 7.64L38.84 7.64Q39.24 7.64 39.69 7.68Q40.14 7.72 40.50 7.81L40.50 7.81L40.50 12.39Q40.16 12.27 39.51 12.20Q38.86 12.13 38.28 12.13L38.28 12.13Q37.12 12.13 36.18 12.64Q35.24 13.14 34.72 14.04Q34.20 14.93 34.20 16.13L34.20 16.13L34.20 27ZM46.38 27.38L46.38 27.38Q44.57 27.38 43.12 26.74Q41.68 26.09 40.85 24.82Q40.02 23.55 40.02 21.65L40.02 21.65Q40.02 20.06 40.61 18.98Q41.20 17.91 42.22 17.26Q43.23 16.61 44.52 16.27Q45.82 15.93 47.23 15.79L47.23 15.79Q48.89 15.62 49.91 15.47Q50.93 15.33 51.40 15.01Q51.87 14.70 51.87 14.08L51.87 14.08L51.87 13.99Q51.87 13.17 51.52 12.61Q51.18 12.05 50.51 11.75Q49.85 11.45 48.87 11.45L48.87 11.45Q47.88 11.45 47.15 11.75Q46.41 12.05 45.95 12.54Q45.49 13.04 45.27 13.65L45.27 13.65L40.57 12.87Q41.06 11.21 42.21 10.05Q43.35 8.88 45.05 8.27Q46.76 7.65 48.87 7.65L48.87 7.65Q50.43 7.65 51.88 8.02Q53.33 8.39 54.49 9.16Q55.64 9.93 56.32 11.16Q56.99 12.39 56.99 14.13L56.99 14.13L56.99 27L52.14 27L52.14 24.35L51.97 24.35Q51.51 25.24 50.74 25.91Q49.97 26.59 48.88 26.98Q47.80 27.38 46.38 27.38ZM47.83 23.77L47.83 23.77Q49.05 23.77 49.96 23.29Q50.87 22.81 51.39 21.99Q51.90 21.17 51.90 20.16L51.90 20.16L51.90 18.10Q51.68 18.27 51.22 18.40Q50.75 18.54 50.19 18.64Q49.63 18.75 49.08 18.83Q48.53 18.92 48.11 18.97L48.11 18.97Q47.17 19.10 46.45 19.41Q45.73 19.72 45.34 20.22Q44.94 20.73 44.94 21.51L44.94 21.51Q44.94 22.25 45.32 22.75Q45.70 23.26 46.34 23.51Q46.98 23.77 47.83 23.77ZM64.22 27L59.09 27L59.09 7.89L64.22 7.89L64.22 27ZM61.66 5.40L61.66 5.40Q60.49 5.40 59.67 4.63Q58.85 3.86 58.85 2.77L58.85 2.77Q58.85 1.67 59.67 0.90Q60.49 0.13 61.66 0.13L61.66 0.13Q62.82 0.13 63.65 0.90Q64.48 1.66 64.48 2.77L64.48 2.77Q64.48 3.86 63.65 4.63Q62.82 5.40 61.66 5.40ZM71.43 15.94L71.43 15.94L71.43 27L66.30 27L66.30 7.89L71.14 7.89L71.22 12.66L70.92 12.66Q71.67 10.27 73.20 8.96Q74.73 7.65 77.15 7.65L77.15 7.65Q79.14 7.65 80.61 8.52Q82.08 9.38 82.90 11.00Q83.72 12.61 83.72 14.85L83.72 14.85L83.72 27L78.59 27L78.59 15.74Q78.59 13.96 77.68 12.95Q76.76 11.94 75.14 11.94L75.14 11.94Q74.06 11.94 73.21 12.41Q72.37 12.88 71.90 13.77Q71.43 14.66 71.43 15.94ZM95.27 27.38L95.27 27.38Q92.21 27.38 89.94 26.44Q87.68 25.50 86.41 23.65Q85.15 21.80 85.08 19.10L85.08 19.10L90.16 19.10Q90.26 20.39 90.93 21.25Q91.59 22.11 92.70 22.54Q93.81 22.97 95.22 22.97L95.22 22.97Q96.62 22.97 97.65 22.57Q98.69 22.16 99.27 21.43Q99.85 20.69 99.85 19.72L99.85 19.72Q99.85 18.85 99.33 18.26Q98.80 17.67 97.83 17.24Q96.86 16.81 95.46 16.49L95.46 16.49L92.65 15.79Q89.42 15.00 87.59 13.32Q85.77 11.64 85.77 8.87L85.77 8.87Q85.77 6.56 87.00 4.83Q88.24 3.11 90.41 2.15Q92.57 1.19 95.34 1.19L95.34 1.19Q98.16 1.19 100.26 2.16Q102.36 3.13 103.54 4.84Q104.72 6.56 104.75 8.80L104.75 8.80L99.71 8.80Q99.57 7.26 98.40 6.42Q97.23 5.59 95.28 5.59L95.28 5.59Q93.97 5.59 93.03 5.96Q92.09 6.34 91.59 7.00Q91.10 7.67 91.10 8.53L91.10 8.53Q91.10 9.47 91.67 10.09Q92.24 10.71 93.17 11.10Q94.10 11.48 95.18 11.74L95.18 11.74L97.49 12.30Q99.10 12.66 100.48 13.28Q101.86 13.89 102.91 14.79Q103.95 15.69 104.52 16.92Q105.09 18.15 105.09 19.75L105.09 19.75Q105.09 22.06 103.93 23.78Q102.77 25.50 100.56 26.44Q98.36 27.38 95.27 27.38ZM114.59 17.48L111.11 21.41L111.11 15.24L111.88 15.24L118.13 7.89L124.06 7.89L115.81 17.48L114.59 17.48ZM111.59 27L106.46 27L106.46 1.54L111.59 1.54L111.59 27ZM124.42 27L118.39 27L112.65 18.63L116.08 14.99L124.42 27ZM133.12 27.38L133.12 27.38Q130.19 27.38 128.08 26.18Q125.96 24.98 124.82 22.78Q123.68 20.57 123.68 17.55L123.68 17.55Q123.68 14.59 124.81 12.37Q125.94 10.15 128.01 8.90Q130.07 7.65 132.86 7.65L132.86 7.65Q134.74 7.65 136.36 8.25Q137.99 8.85 139.22 10.06Q140.45 11.26 141.14 13.07Q141.83 14.88 141.83 17.34L141.83 17.34L141.83 18.78L125.79 18.78L125.79 15.57L139.32 15.57L136.93 16.42Q136.93 14.93 136.48 13.83Q136.02 12.73 135.13 12.12Q134.23 11.52 132.89 11.52L132.89 11.52Q131.58 11.52 130.65 12.13Q129.72 12.75 129.24 13.80Q128.76 14.85 128.76 16.20L128.76 16.20L128.76 18.47Q128.76 20.13 129.31 21.26Q129.87 22.39 130.87 22.95Q131.87 23.51 133.20 23.51L133.20 23.51Q134.11 23.51 134.84 23.26Q135.58 23.00 136.10 22.50Q136.62 21.99 136.89 21.26L136.89 21.26L141.54 22.13Q141.08 23.70 139.94 24.89Q138.79 26.08 137.07 26.73Q135.36 27.38 133.12 27.38ZM141.22 7.89L152.55 7.89L152.55 11.81L141.22 11.81L141.22 7.89ZM143.85 21.86L143.85 3.35L148.97 3.35L148.97 21.41Q148.97 22.32 149.38 22.75Q149.78 23.19 150.72 23.19L150.72 23.19Q151.01 23.19 151.54 23.11Q152.07 23.04 152.34 22.97L152.34 22.97L153.08 26.81Q152.22 27.07 151.38 27.17Q150.53 27.27 149.76 27.27L149.76 27.27Q146.89 27.27 145.37 25.87Q143.85 24.47 143.85 21.86L143.85 21.86ZM162.15 27.38L162.15 27.38Q159.26 27.38 157.17 26.14Q155.07 24.90 153.94 22.68Q152.80 20.47 152.80 17.53L152.80 17.53Q152.80 14.56 153.94 12.35Q155.07 10.13 157.17 8.89Q159.26 7.65 162.15 7.65L162.15 7.65Q163.84 7.65 165.28 8.10Q166.71 8.54 167.82 9.36Q168.93 10.18 169.65 11.36Q170.37 12.54 170.64 14.01L170.64 14.01L165.87 14.90Q165.72 14.15 165.40 13.56Q165.07 12.97 164.61 12.55Q164.15 12.13 163.54 11.91Q162.93 11.69 162.20 11.69L162.20 11.69Q160.83 11.69 159.90 12.42Q158.97 13.16 158.50 14.47Q158.03 15.79 158.03 17.52L158.03 17.52Q158.03 19.22 158.50 20.53Q158.97 21.84 159.90 22.59Q160.83 23.34 162.20 23.34L162.20 23.34Q162.93 23.34 163.55 23.11Q164.17 22.88 164.64 22.45Q165.12 22.01 165.45 21.39Q165.77 20.78 165.91 20.01L165.91 20.01L170.68 20.88Q170.40 22.40 169.69 23.59Q168.97 24.78 167.86 25.63Q166.75 26.49 165.30 26.93Q163.86 27.38 162.15 27.38ZM177.05 15.94L177.05 15.94L177.05 27L171.92 27L171.92 1.54L176.95 1.54L176.95 12.66L176.54 12.66Q177.29 10.27 178.82 8.96Q180.35 7.65 182.77 7.65L182.77 7.65Q184.76 7.65 186.23 8.52Q187.71 9.38 188.52 11.00Q189.34 12.61 189.34 14.85L189.34 14.85L189.34 27L184.21 27L184.21 15.74Q184.21 13.96 183.30 12.95Q182.38 11.94 180.76 11.94L180.76 11.94Q179.68 11.94 178.83 12.41Q177.99 12.88 177.52 13.77Q177.05 14.66 177.05 15.94Z" fill="#ededed"></path></g>
        
      </svg>